# xmcd
#
# Track frame offsets:
#	150
#	16450
#	26347
#	38845
#	48430
#	61205
#	76257
#	85832
#	95370
#	105432
#	115645
#	129185
#	140215
#	150332
#	161962
#	171492
#	181547
#	189420
#	199595
#	216855
#	227630
#	236400
#	245667
#	260357
#	271945
#	281737
#	291845
#	301330
#	312777
#	322545
#
# Disc length: 4542 seconds
#
# Revision: 6
# Processed by: cddbd v1.5.2PL0 Copyright (c) Steve Scherf et al.
# Submitted via: dBpowerAMP V4.0
#
DISCID=8a11bc1e
DTITLE=Burl Ives - the nashville years Vol 3
DYEAR=1900
DGENRE=Country
TTITLE0=Mary Ann Regrets
TTITLE1=Billy Bayou
TTITLE2=The Moon Is High
TTITLE3=Green Turtle
TTITLE4=Bury The Bottle With Me
TTITLE5=The Blizzard
TTITLE6=It Comes And Goes
TTITLE7=I'm The Boss
TTITLE8=The Same Old Hurt (remake 1963)
TTITLE9=Curry Road
TTITLE10=The Deepening Snow
TTITLE11=She Didn't Let The Ink Dry On The Paper
TTITLE12=The Late Movie 1963
TTITLE13=Home, James
TTITLE14=Man About Town
TTITLE15=She Called Me Baby
TTITLE16=My Chicken Run Way To The Bush
TTITLE17=Baby Come Home To Me
TTITLE18=Roses And Orchids
TTITLE19=Lynching Party
TTITLE20=A Hundred Twenty Miles From Nowhere
TTITLE21=Two-car Garage
TTITLE22=I Found My Best Friend In The Dog Pound
TTITLE23=I'll Hit It With A Stick
TTITLE24=Saskatoon, Saskatchewan
TTITLE25=Some Folks
TTITLE26=I'll Walk Away Smiling
TTITLE27=There Goes Another Pal Of Mine 
TTITLE28=This Is Your Day
TTITLE29=This Is All I Ask 
EXTD=
EXTT0=
EXTT1=
EXTT2=
EXTT3=
EXTT4=
EXTT5=
EXTT6=
EXTT7=
EXTT8=
EXTT9=
EXTT10=
EXTT11=
EXTT12=
EXTT13=
EXTT14=
EXTT15=
EXTT16=
EXTT17=
EXTT18=
EXTT19=
EXTT20=
EXTT21=
EXTT22=
EXTT23=
EXTT24=
EXTT25=
EXTT26=
EXTT27=
EXTT28=
EXTT29=
PLAYORDER=
